<svg width="1673" height="1582" viewBox="0 0 1673 1582" fill="none" xmlns="http://www.w3.org/2000/svg">
<path d="M834.987 792.65L0 842L0.93689 730L835 791.527L834.987 792.65Z" fill="#FFADE4"/>
<path d="M837.65 790L20 617.783L54.561 510L838 788.928L837.65 790Z" fill="#FFADE4"/>
<path d="M837.349 790L103 407.063L168.503 312L838 789.045L837.349 790Z" fill="#FFADE4"/>
<path d="M837.085 790L247 227.969L337.995 154L838 789.261L837.085 790Z" fill="#FFADE4"/>
<path d="M836.903 790L437 92.9737L546.364 46L838 789.532L836.903 790Z" fill="#FFADE4"/>
<path d="M836.79 790L657 16.066L777.582 0L838 789.841L836.79 790Z" fill="#FFADE4"/>
<path d="M835 789.841L895.416 0L1016 16.066L836.21 790L835 789.841Z" fill="#FFADE4"/>
<path d="M835 789.532L1126.64 46L1236 92.9737L836.095 790L835 789.532Z" fill="#FFADE4"/>
<path d="M835 789.261L1335 154L1426 227.969L835.915 790L835 789.261Z" fill="#FFADE4"/>
<path d="M835 789.045L1504.5 312L1570 407.052L835.651 790L835 789.045Z" fill="#FFADE4"/>
<path d="M835 788.928L1618.44 510L1653 617.783L835.35 790L835 788.928Z" fill="#FFADE4"/>
<path d="M835 791.539L1672.06 730L1673 842L835.012 792.661L835 791.539Z" fill="#FFADE4"/>
<path d="M835.013 791.35L1673 742L1672.06 854L835 792.473L835.013 791.35Z" fill="#FFADE4"/>
<path d="M835.35 790L1653 964.678L1618.44 1074L835 791.088L835.35 790Z" fill="#FFADE4"/>
<path d="M835.651 790L1570 1175.34L1504.5 1271L835 790.961L835.651 790Z" fill="#FFADE4"/>
<path d="M835.915 790L1426 1354.68L1335 1429L835 790.743L835.915 790Z" fill="#FFADE4"/>
<path d="M836.091 790L1234 1487.03L1125.18 1534L835 790.468L836.091 790Z" fill="#FFADE4"/>
<path d="M836.183 790L1012 1565.89L894.083 1582L835 790.16L836.183 790Z" fill="#FFADE4"/>
<path d="M835 790.16L775.586 1582L657 1565.89L833.81 790L835 790.16Z" fill="#FFADE4"/>
<path d="M835 790.468L545.546 1534L437 1487.03L833.913 790L835 790.468Z" fill="#FFADE4"/>
<path d="M835 790.743L334.149 1429L243 1354.68L834.083 790L835 790.743Z" fill="#FFADE4"/>
<path d="M835 790.962L168.236 1271L103 1175.35L834.352 790L835 790.962Z" fill="#FFADE4"/>
<path d="M835 791.088L52.5201 1074L18 964.678L834.651 790L835 791.088Z" fill="#FFADE4"/>
<path d="M835 792.462L0.938292 854L0 742L834.988 791.338L835 792.462Z" fill="#FFADE4"/>
</svg>
